<svg width="150" height="54" viewBox="0 0 150 54" fill="none" xmlns="http://www.w3.org/2000/svg">
<g clip-path="url(#clip0_566_24974)">
<path d="M44.5751 39.9966C39.5737 39.8863 36.8179 36.6244 34.7969 34.2305C34.7221 34.1409 34.6472 34.0548 34.5758 33.9653C34.1641 33.4796 34.2117 32.7528 34.6778 32.3223L36.4811 30.662C36.9676 30.2142 37.7263 30.2625 38.155 30.7688C38.2468 30.8756 38.3353 30.9824 38.4272 31.0891C40.2712 33.2764 41.8669 35.164 44.8337 35.1674C48.5081 35.1674 51.6246 32.5875 52.2813 28.9295C53.1522 24.0762 49.4744 19.8326 44.8371 19.8326C40.8904 19.8326 36.2021 25.1578 32.0683 29.8595C27.4786 35.0744 23.1441 40 18.3503 40C11.5389 40 6 34.3924 6 27.5C6 20.6076 11.5389 15 18.3469 15C19.2145 15 20.1127 15.1206 21.0279 15.3651C21.9431 15.6097 22.433 16.5982 22.0792 17.4766L21.4396 19.0645C21.1504 19.7844 20.3849 20.1702 19.6364 19.9945C19.1804 19.8877 18.7484 19.8326 18.3469 19.8326C14.1689 19.8326 10.7734 23.2736 10.7734 27.5C10.7734 31.7264 14.1723 35.1674 18.3469 35.1674C21.0007 35.1674 24.9847 30.6379 28.5027 26.6423C33.5381 20.9176 38.747 15 44.8337 15C52.2132 15 58.0992 21.5858 57.0615 29.2567C56.2177 35.4843 50.7808 40.1343 44.5751 39.9966Z" fill="white"/>
<path d="M28.5298 20.0919L27.0551 18.5988C26.5409 18.0783 25.7072 18.0783 25.193 18.5988L23.7182 20.0919C23.204 20.6124 23.2041 21.4565 23.7182 21.977L25.193 23.4701C25.7072 23.9906 26.5409 23.9906 27.0551 23.4701L28.5298 21.977C29.044 21.4565 29.044 20.6124 28.5298 20.0919Z" fill="#20D489"/>
<path d="M81.5275 25.0818C82.8986 25.0818 84.069 25.5778 85.0386 26.563C86.0083 27.5515 86.4914 28.7399 86.4914 30.128C86.4914 31.5161 85.964 32.7424 85.0386 33.6792C84.069 34.6609 82.902 35.15 81.5309 35.15H74.5596V32.1843H81.5309C82.0956 32.1843 82.5753 31.9846 82.97 31.585C83.3647 31.1855 83.562 30.6998 83.562 30.128C83.562 29.5562 83.3647 29.0705 82.97 28.671C82.5753 28.2714 82.0956 28.0716 81.5309 28.0716H79.6188C78.2681 28.0716 76.9548 27.5515 76.0055 26.5802C75.0189 25.571 74.5392 24.3482 74.563 22.9187C74.5834 21.6305 75.1141 20.3801 76.0123 19.4708C76.982 18.4891 78.149 18 79.5235 18H85.5013V20.9657H79.5235C78.9757 20.9657 78.4994 21.1689 78.0945 21.5788C77.6897 21.9887 77.4889 22.4744 77.4889 23.0358C77.4889 23.5973 77.6897 24.0829 78.0945 24.4825C78.4994 24.8821 78.9723 25.0818 79.5235 25.0818H81.5343H81.5275Z" fill="white"/>
<path d="M106.242 32.1878H115.244V35.1535H103.312V18H106.242V32.1878Z" fill="white"/>
<path d="M120.62 32.1878H129.622V35.1535H117.69V18H120.62V32.1878Z" fill="white"/>
<path d="M139.039 25.0818C140.41 25.0818 141.581 25.5778 142.55 26.563C143.52 27.5515 144.003 28.7399 144.003 30.128C144.003 31.5161 143.476 32.7424 142.55 33.6792C141.625 34.6161 140.414 35.15 139.043 35.15H132.071V32.1843H139.043C139.607 32.1843 140.087 31.9846 140.482 31.585C140.876 31.1855 141.074 30.6998 141.074 30.128C141.074 29.5562 140.876 29.0705 140.482 28.671C140.087 28.2714 139.607 28.0716 139.043 28.0716H137.13C135.78 28.0716 134.466 27.5515 133.517 26.5802C132.531 25.571 132.051 24.3482 132.075 22.9187C132.095 21.6305 132.626 20.3801 133.524 19.4708C134.494 18.4891 135.661 18 137.035 18H143.013V20.9657H137.035C136.487 20.9657 136.011 21.1689 135.606 21.5788C135.201 21.9887 135.001 22.4744 135.001 23.0358C135.001 23.5973 135.201 24.0829 135.606 24.4825C136.011 24.8821 136.484 25.0818 137.035 25.0818H139.046H139.039Z" fill="white"/>
<path d="M97.0489 23.2203C96.8618 23.6371 96.3514 23.9264 96.0078 24.0814C95.8649 24.1434 95.8479 24.3432 95.9772 24.4327L97.6103 25.5935C97.6681 25.6348 97.743 25.6417 97.8076 25.6142C98.7977 25.1836 99.5904 24.4396 99.8014 23.3202C99.8252 23.1996 99.7265 23.0859 99.6006 23.0859C99.0494 23.0859 97.6783 23.0859 97.236 23.0859C97.151 23.0859 97.0829 23.1445 97.0489 23.2203Z" fill="#20D489"/>
<path d="M94.9662 25.0442C94.2687 24.5482 93.2889 23.8455 92.6016 23.2462C91.8565 22.5918 91.9382 21.3552 92.7955 20.8626C93.2616 20.594 93.8536 20.4321 94.4899 20.4321C95.8134 20.4321 96.9497 20.7834 97.1437 21.8443C97.1777 22.0303 97.3444 22.1853 97.5315 22.1853H99.4334C99.6681 22.1853 99.8519 21.9718 99.8178 21.7341C99.4912 19.4711 97.2253 17.7109 94.4865 17.7109C91.5231 17.7109 89.1143 19.7673 89.1143 22.2955C89.1143 24.2072 91.1046 25.6263 93.4113 27.2728C94.9084 28.3406 97.1709 29.9526 97.1709 30.8723C97.1709 31.8815 95.9426 32.7357 94.4865 32.7357C93.0303 32.7357 91.8021 31.8815 91.8021 30.8723C91.8021 30.2213 92.1253 29.77 92.6628 29.2086C92.7547 29.1122 92.7479 28.9606 92.6458 28.8779C92.2376 28.5473 91.2883 27.7826 90.9141 27.4829C90.8256 27.4106 90.6997 27.4209 90.6215 27.5001C89.8866 28.2476 89.1143 29.1363 89.1143 30.8723C89.1143 33.4005 91.5231 35.4569 94.4865 35.4569C97.4498 35.4569 99.8587 33.4005 99.8587 30.8723C99.8587 28.5404 97.3682 26.7665 94.9594 25.0477L94.9662 25.0442Z" fill="white"/>
</g>
<defs>
<clipPath id="clip0_566_24974">
<rect width="138" height="25" fill="white" transform="translate(6 15)"/>
</clipPath>
</defs>
</svg>
